<svg width="15" height="19" viewBox="0 0 15 19" fill="none" xmlns="http://www.w3.org/2000/svg">
<g id="Group">
<path id="Vector" d="M12.5275 9.78697C12.5534 12.5748 14.9732 13.5025 15 13.5143C14.9795 13.5798 14.6134 14.8364 13.7252 16.1345C12.9573 17.2567 12.1604 18.3748 10.9051 18.3979C9.6716 18.4207 9.27497 17.6665 7.86473 17.6665C6.45492 17.6665 6.01423 18.3748 4.84659 18.4207C3.63487 18.4665 2.71215 17.2071 1.93795 16.089C0.355974 13.8019 -0.852985 9.62615 0.770342 6.80745C1.57678 5.40767 3.01794 4.52127 4.58218 4.49854C5.77207 4.47584 6.89517 5.29905 7.62256 5.29905C8.34949 5.29905 9.7143 4.30907 11.1491 4.45446C11.7497 4.47946 13.4358 4.69709 14.5184 6.2818C14.4312 6.33588 12.5066 7.45625 12.5275 9.78697ZM10.2093 2.94133C10.8526 2.16263 11.2856 1.0786 11.1675 0C10.2402 0.0372686 9.11892 0.617917 8.4538 1.39619C7.85772 2.08539 7.33569 3.1885 7.47654 4.24575C8.51011 4.32572 9.56598 3.72053 10.2093 2.94133Z" fill="white"/>
</g>
</svg>
