<svg width="18" height="18" viewBox="0 0 18 18" fill="none" xmlns="http://www.w3.org/2000/svg">
<g id="google-icon logo" clip-path="url(#clip0_23_388)">
<g id="Group">
<path id="Vector" d="M17.5793 9.23709C17.5793 8.49964 17.5195 7.9615 17.39 7.40343H8.96899V10.7319H13.9119C13.8123 11.5591 13.2742 12.8048 12.0783 13.6419L12.0615 13.7533L14.724 15.816L14.9085 15.8344C16.6026 14.2697 17.5793 11.9677 17.5793 9.23709Z" fill="#4285F4"/>
<path id="Vector_2" d="M8.96919 18.0069C11.3908 18.0069 13.4238 17.2096 14.9087 15.8344L12.0785 13.6419C11.3211 14.1701 10.3046 14.5388 8.96919 14.5388C6.59738 14.5388 4.58434 12.9742 3.86674 10.8117L3.76156 10.8206L0.992993 12.9632L0.956787 13.0639C2.43169 15.9938 5.46125 18.0069 8.96919 18.0069Z" fill="#34A853"/>
<path id="Vector_3" d="M3.86663 10.8117C3.67729 10.2536 3.56771 9.65562 3.56771 9.03779C3.56771 8.41988 3.67729 7.82196 3.85667 7.26389L3.85166 7.14504L1.0484 4.968L0.956679 5.01162C0.348802 6.22745 0 7.59277 0 9.03779C0 10.4828 0.348802 11.8481 0.956679 13.0639L3.86663 10.8117Z" fill="#FBBC05"/>
<path id="Vector_4" d="M8.96919 3.53673C10.6534 3.53673 11.7894 4.26421 12.4372 4.87216L14.9685 2.40066C13.4139 0.955649 11.3908 0.0687027 8.96919 0.0687027C5.46125 0.0687027 2.43169 2.08175 0.956787 5.01163L3.85678 7.26389C4.58434 5.10135 6.59738 3.53673 8.96919 3.53673Z" fill="#EB4335"/>
</g>
</g>
<defs>
<clipPath id="clip0_23_388">
<rect width="17.5878" height="18" fill="white"/>
</clipPath>
</defs>
</svg>
